<?xml version="1.0" encoding="utf-8"?>
<!-- Generator: Adobe Illustrator 24.0.1, SVG Export Plug-In . SVG Version: 6.00 Build 0)  -->
<svg version="1.1" id="Слой_1" xmlns="http://www.w3.org/2000/svg" xmlns:xlink="http://www.w3.org/1999/xlink" x="0px" y="0px"
	 width="62.7px" height="44.7px" viewBox="0 0 62.7 44.7" style="enable-background:new 0 0 62.7 44.7;" xml:space="preserve">
<style type="text/css">
	.st0{fill:#FFFFFF;stroke:#000000;stroke-miterlimit:10;}
</style>
<path class="st0" d="M12.6,24c-6.2,0.2-11-4.1-12-9.3c-1.4-6.8,2.8-12.2,8-13.8c6-1.8,11.6,1.3,13.7,5.5c-1.1,0-2,0.4-2.7,1
	c-0.7-0.7-1.4-1.5-2.2-2.2c-0.9-0.8-2.1-1.3-3.3-1.6c-1.2-0.3-2.5-0.3-3.7-0.1C8.1,4,6.2,5.4,4.8,7.4c-0.7,1-1.1,2.2-1.3,3.4
	c-0.2,1.3-0.1,2.5,0.3,3.8c0.6,2.2,1.9,3.8,3.8,5c0.3,0.2,0.6,0.3,0.9,0.4c0.4,0.2,0.8,0.5,1.1,0.8C10.6,21.9,11.6,22.9,12.6,24z"/>
<path class="st0" d="M24,32.2c-0.2-0.2-0.3-0.3-0.4-0.4c-5.1-5.1-10.1-10.1-15.2-15.2c-1-1-1.7-2.3-1.9-3.7c-0.1-0.8,0-1.6,0.2-2.4
	c0.4-1.2,1.1-2.3,2.2-3c1-0.6,2-1,3.2-1c1.7,0,3.1,0.6,4.3,1.8c1.2,1.2,2.4,2.4,3.7,3.7c0.1,0.1,0.2,0.2,0.3,0.3
	c0.6-1.7,1.6-2.9,3.2-3.6c1.6-0.7,3.2-0.6,4.8,0.2c0.6-1.7,1.5-3.1,3.2-3.9c1.7-0.8,3.3-0.6,4.9,0.1c0.2-0.5,0.4-1.1,0.7-1.6
	c0.6-1,1.4-1.8,2.5-2.3c0.9-0.4,1.9-0.6,2.9-0.4c1.5,0.2,2.7,0.9,3.8,2c3.3,3.3,6.6,6.6,9.8,9.9c1.6,1.6,3,3.4,4.2,5.4
	c0.9,1.5,1.6,3,1.8,4.7c0.2,1.1,0.2,2.2,0,3.3c-0.2,1.6-0.7,3.1-1.5,4.5c-0.6,1-1.1,1.9-1.8,2.8c-1.9,2.7-4.3,4.9-6.8,7
	c-0.9,0.8-2,1.4-3,2c-0.9,0.5-1.9,0.9-3,1.2c-0.9,0.3-1.9,0.3-2.8,0.5c-1.9,0.4-3.7,0.2-5.6,0.2c-4.7,0.1-9.5,0.1-14.2,0.1
	c-1.6,0-3.2,0-4.8,0c-1.6,0-2.8-0.8-3.8-2c-1-1.1-1.5-2.5-1.6-4c-0.1-1.2,0.2-2.3,0.9-3.3c0.4-0.5,0.7-1,1.2-1.5
	c0.9-0.8,2-1.3,3.2-1.5c0.5,0,0.9,0,1.4,0c0.3,0,0.7,0,1,0C21.9,32.2,22.9,32.2,24,32.2z M31.3,35.1c-0.1,0-0.2,0-0.3,0
	c-1.4,0-2.9,0-4.3,0c-1.5,0-3,0-4.5,0c-0.8,0-1.5,0.1-2.3,0c-0.7-0.1-1.3,0.2-1.8,0.5c-1.2,0.8-1.7,2.4-1.2,3.9
	c0.5,1.1,1.4,1.7,2.6,1.7c0.7,0,1.3,0,2,0c1.2,0,2.4,0,3.6,0c0.8,0,1.6,0,2.4,0c2.6,0,5.1,0,7.7,0c1.8,0,3.6,0,5.5,0c1,0,2,0,3-0.2
	c1.8-0.3,3.4-1,4.9-2c1.3-0.9,2.6-1.9,3.8-2.9c1.2-1.1,2.3-2.3,3.3-3.5c0.8-0.9,1.5-2,2.1-3.1c0.7-1.1,1.1-2.2,1.4-3.5
	c0.3-1.2,0.2-2.3,0-3.4c-0.3-1.3-0.8-2.4-1.5-3.5c-0.7-1-1.5-2.1-2.4-3c-2.8-2.9-5.7-5.8-8.5-8.6c-0.8-0.9-1.7-1.7-2.6-2.5
	c-0.4-0.4-0.9-0.7-1.4-0.9c-1-0.4-2.1,0.2-2.8,1.2c-0.2,0.4-0.4,0.8-0.5,1.2c-0.1,0.9,0.3,1.7,1,2.3c1.5,1.4,2.9,2.9,4.3,4.3
	c0.5,0.5,0.6,1.4,0.2,2c-0.4,0.5-1.3,0.8-1.9,0.4c-0.3-0.2-0.6-0.4-0.9-0.7c-1-0.9-1.9-1.9-2.9-2.8c-1-1-2-2-3-3
	c-0.9-0.9-1.9-1.1-3.1-0.6c-1.1,0.5-1.7,1.4-1.6,2.5c0,0.8,0.4,1.4,0.9,1.9c1.6,1.6,3.3,3.3,4.9,4.9c0.4,0.4,0.6,0.8,0.6,1.3
	c0.1,0.7-0.9,1.6-1.6,1.5c-0.7-0.1-1.1-0.5-1.6-1c-2.2-2.2-4.4-4.4-6.7-6.7c-0.8-0.8-1.7-1.3-2.9-0.8c-1.2,0.4-1.8,1.5-1.8,2.6
	c0,0.8,0.4,1.4,1,2c1.8,1.8,3.6,3.6,5.4,5.4c0.7,0.7,0.5,1.7,0,2.2c-0.6,0.6-1.6,0.6-2.2,0c-4.4-4.3-8.7-8.7-13.1-13.1
	c-0.1-0.1-0.2-0.2-0.4-0.4c-0.8-0.7-1.9-1-2.9-0.5c-1.3,0.7-1.9,2.1-1.3,3.5c0.2,0.4,0.5,0.8,0.8,1.1c6.7,6.7,13.3,13.3,20,20
	c0.1,0.1,0.3,0.2,0.4,0.3C31.3,35,31.3,35.1,31.3,35.1z"/>
</svg>
