<?xml version="1.0" encoding="utf-8"?>
<!-- Generator: Adobe Illustrator 24.0.1, SVG Export Plug-In . SVG Version: 6.00 Build 0)  -->
<svg version="1.1" id="Слой_1" xmlns="http://www.w3.org/2000/svg" xmlns:xlink="http://www.w3.org/1999/xlink" x="0px" y="0px"
	 width="31px" height="31px" viewBox="0 0 31 31" style="enable-background:new 0 0 31 31;" xml:space="preserve">
<style type="text/css">
	.st0{fill:#FFFFFF;stroke:#000000;stroke-miterlimit:10;}
</style>
<g>
	<path class="st0" d="M19.4,1C11.4-1.1,3.2,3.6,1,11.6c-2.1,8,2.6,16.2,10.6,18.4c4.1,1.1,8.3,0.4,11.6-1.7l0,0
		c0.4-0.2,0.7-0.7,0.7-1.2c0-0.8-0.6-1.4-1.4-1.4c-0.2,0-0.5,0.1-0.7,0.2l0,0c-2.7,1.7-6.1,2.3-9.5,1.4c-6.5-1.7-10.3-8.4-8.6-14.8
		c1.7-6.5,8.4-10.3,14.8-8.6c6.5,1.7,10.3,8.4,8.6,14.8c-0.3,1.2-0.8,2.2-1.4,3.2l0,0c-0.1,0.2-0.2,0.4-0.2,0.7
		c0,0.8,0.6,1.4,1.4,1.4c0.5,0,1-0.3,1.2-0.7l0,0c0.7-1.2,1.3-2.5,1.7-3.9C32.1,11.4,27.4,3.2,19.4,1L19.4,1z M17.9,16.3
		c0.7-0.5,2.7-1.4,2.7-3.9s-2.1-4.2-3.9-4.6s-3.7-0.1-5,1.4c-1.2,1.3-1.5,2.4-1.5,4.7H13v-0.5c0-1.2,0.1-2.5,1.9-2.9
		c1-0.2,1.9,0.1,2.4,0.6c0.6,0.6,0.6,2-0.4,2.6l-1.5,1c-0.9,0.6-1.2,1.2-1.2,2.2V20h2.7v-2.1C16.9,17.3,17.2,16.8,17.9,16.3
		L17.9,16.3z M15.6,21.1c-0.8,0-1.4,0.6-1.4,1.4s0.6,1.4,1.4,1.4s1.4-0.6,1.4-1.4S16.3,21.1,15.6,21.1L15.6,21.1z"/>
</g>
</svg>
