<?xml version="1.0" encoding="utf-8"?>
<!-- Generator: Adobe Illustrator 24.0.1, SVG Export Plug-In . SVG Version: 6.00 Build 0)  -->
<svg version="1.1" id="Слой_1" xmlns="http://www.w3.org/2000/svg" xmlns:xlink="http://www.w3.org/1999/xlink" x="0px" y="0px"
	 width="39px" height="31px" viewBox="0 0 39 31" style="enable-background:new 0 0 39 31;" xml:space="preserve">
<style type="text/css">
	.st0{fill:#FFFFFF;stroke:#000000;stroke-miterlimit:10;}
</style>
<g>
	<g>
		<g>
			<path class="st0" d="M38.3,19l-3.8-6.6l-0.2-0.3c-0.3-0.3-0.6-0.5-1-0.5c-0.5,0-1,0.2-1.4,0.6l-5.1,6c-0.6,0.7-0.5,1.7,0.2,2.2
				s1.7,0.5,2.2-0.2l2.3-2.7C30.6,22,27,25.9,22.3,27c-4,0.9-8.1-0.2-11.1-3.1c-0.6-0.6-1.6-0.6-2.2,0c-0.6,0.6-0.6,1.6,0,2.2
				c2.9,2.8,6.6,4.3,10.6,4.3c1.2,0,2.3-0.1,3.5-0.4c5.7-1.3,10.1-6,11.4-11.4l1.1,1.9c0.3,0.5,0.8,0.8,1.4,0.8
				c0.3,0,0.5-0.1,0.8-0.2C38.5,20.7,38.7,19.8,38.3,19z M12.2,12.2c-0.7-0.6-1.7-0.5-2.2,0.2l-2.7,3.2c0.1-2,0.6-4,1.7-5.8
				c1.8-2.9,4.6-5,7.9-5.8c4.3-1,8.7,0.4,11.6,3.7c0.6,0.7,1.6,0.7,2.2,0.1c0.7-0.6,0.7-1.6,0.1-2.2c-3.7-4.2-9.3-6-14.7-4.7
				c-4.1,1-7.7,3.6-9.9,7.2c-1,1.6-1.6,3.4-1.9,5.2l-0.9-1.5c-0.4-0.7-1.4-1-2.2-0.5c-0.7,0.4-1,1.4-0.5,2.2l4.1,6.7
				C5,20.7,5.5,21,6,21l0.1,0c0.5,0,0.9-0.2,1.2-0.6l5.1-6C13,13.7,12.9,12.7,12.2,12.2z"/>
		</g>
	</g>
</g>
</svg>
