<?xml version="1.0" encoding="utf-8"?>
<!-- Generator: Adobe Illustrator 24.0.1, SVG Export Plug-In . SVG Version: 6.00 Build 0)  -->
<svg version="1.1" id="Слой_1" xmlns="http://www.w3.org/2000/svg" xmlns:xlink="http://www.w3.org/1999/xlink" x="0px" y="0px"
	 width="36.4px" height="30px" viewBox="0 0 36.4 30" style="enable-background:new 0 0 36.4 30;" xml:space="preserve">
<style type="text/css">
	.st0{fill:#FFFFFF;stroke:#000000;stroke-width:0.994;stroke-miterlimit:10;}
</style>
<g>
	<path class="st0" d="M29.7,28.7c-0.4,0-0.8-0.2-1.1-0.5c-0.6-0.6-0.6-1.6,0-2.3c2.9-2.9,4.5-6.8,4.5-11s-1.6-8.1-4.5-11
		c-0.6-0.6-0.6-1.6,0-2.3s1.6-0.6,2.2,0c3.5,3.5,5.4,8.3,5.4,13.3s-1.9,9.7-5.4,13.3C30.5,28.6,30.1,28.7,29.7,28.7L29.7,28.7z
		 M24,25.7c-0.4,0-0.8-0.2-1.1-0.5c-0.6-0.6-0.6-1.6,0-2.3c4.3-4.4,4.3-11.5,0-15.9c-0.6-0.6-0.6-1.6,0-2.3s1.6-0.6,2.2,0
		c2.7,2.7,4.2,6.4,4.2,10.2s-1.5,7.5-4.2,10.2C24.8,25.5,24.4,25.7,24,25.7L24,25.7L24,25.7z M18.4,22.7c-0.4,0-0.8-0.2-1.1-0.5
		c-0.6-0.6-0.6-1.6,0-2.3c2.7-2.7,2.7-7.1,0-9.8c-0.6-0.6-0.6-1.6,0-2.3c0.6-0.6,1.6-0.6,2.2,0c3.9,4,3.9,10.4,0,14.4
		C19.2,22.5,18.8,22.7,18.4,22.7L18.4,22.7z"/>
	<path class="st0" d="M14,30c-0.3,0-0.5-0.1-0.7-0.3l-8.2-8.3H1.3c-0.6,0-1.1-0.5-1.1-1.1V9.6c0-0.6,0.5-1.1,1.1-1.1h3.8l8.2-8.3
		C13.5,0,14-0.1,14.4,0.1c0.4,0.2,0.7,0.6,0.7,1v27.9c0,0.4-0.3,0.8-0.7,1C14.3,30,14.1,30,14,30z"/>
</g>
</svg>
