<svg xmlns="http://www.w3.org/2000/svg" xmlns:xlink="http://www.w3.org/1999/xlink" version="1.1" x="0px" y="0px" viewBox="0 0 100 100" fill="blue" enable-background="new 0 0 100 100" xml:space="preserve"><g><g><path d="M66.955,28.331L55.977,39.31c-1.302,1.301-1.302,3.412,0,4.713c1.321,1.322,3.428,1.285,4.714,0l16.668-16.669    c1.302-1.302,1.302-3.413,0-4.714L60.69,5.976c-1.303-1.3-3.412-1.301-4.714,0.001s-1.302,3.412,0,4.714l10.977,10.973H41.668    C21.449,21.664,5,38.114,5,58.332c0,1.841,1.493,3.333,3.333,3.333s3.333-1.492,3.333-3.333c0-16.542,13.459-30.001,30.002-30.001    H66.955z M91.667,38.335c-1.841,0-3.334,1.493-3.334,3.333c0,16.542-13.458,29.999-30.001,29.999H33.047l10.977-10.979    c1.302-1.299,1.302-3.411,0-4.714c-1.322-1.321-3.428-1.282-4.713,0l-16.668,16.67c-1.302,1.303-1.302,3.413,0,4.716L39.31,94.023    c1.302,1.301,3.411,1.302,4.713,0s1.302-3.413,0-4.715L33.044,78.333h25.288C78.552,78.333,95,61.885,95,41.668    C95,39.828,93.508,38.335,91.667,38.335z"/></g></g></svg>